<svg xmlns="http://www.w3.org/2000/svg" viewBox="0 0 600 200" width="600" height="200">
  <defs>
    <linearGradient id="shieldGrad" x1="0%" y1="0%" x2="100%" y2="100%">
      <stop offset="0%" style="stop-color:#1B3A5C;stop-opacity:1" />
      <stop offset="100%" style="stop-color:#2A5F8F;stop-opacity:1" />
    </linearGradient>
    <linearGradient id="accentGrad" x1="0%" y1="0%" x2="100%" y2="0%">
      <stop offset="0%" style="stop-color:#E8913A;stop-opacity:1" />
      <stop offset="100%" style="stop-color:#F4A942;stop-opacity:1" />
    </linearGradient>
    <linearGradient id="nodeGrad" x1="0%" y1="0%" x2="100%" y2="100%">
      <stop offset="0%" style="stop-color:#2A5F8F;stop-opacity:1" />
      <stop offset="100%" style="stop-color:#3D7AB5;stop-opacity:1" />
    </linearGradient>
  </defs>

  <!-- Shield Icon -->
  <g transform="translate(30, 16)">
    <!-- Shield body -->
    <path d="M70 10 L120 30 L120 90 C120 130 70 160 70 160 C70 160 20 130 20 90 L20 30 Z"
          fill="url(#shieldGrad)" stroke="none"/>

    <!-- Inner shield highlight -->
    <path d="M70 22 L110 38 L110 88 C110 120 70 146 70 146 C70 146 30 120 30 88 L30 38 Z"
          fill="none" stroke="rgba(255,255,255,0.15)" stroke-width="1.5"/>

    <!-- Network nodes inside shield - representing connected experts -->
    <!-- Central node -->
    <circle cx="70" cy="75" r="8" fill="url(#accentGrad)"/>

    <!-- Surrounding nodes -->
    <circle cx="50" cy="52" r="5.5" fill="#E8913A" opacity="0.9"/>
    <circle cx="90" cy="52" r="5.5" fill="#E8913A" opacity="0.9"/>
    <circle cx="45" cy="95" r="5.5" fill="#E8913A" opacity="0.9"/>
    <circle cx="95" cy="95" r="5.5" fill="#E8913A" opacity="0.9"/>
    <circle cx="70" cy="112" r="5.5" fill="#E8913A" opacity="0.9"/>

    <!-- Connection lines -->
    <line x1="70" y1="75" x2="50" y2="52" stroke="rgba(255,255,255,0.5)" stroke-width="1.5"/>
    <line x1="70" y1="75" x2="90" y2="52" stroke="rgba(255,255,255,0.5)" stroke-width="1.5"/>
    <line x1="70" y1="75" x2="45" y2="95" stroke="rgba(255,255,255,0.5)" stroke-width="1.5"/>
    <line x1="70" y1="75" x2="95" y2="95" stroke="rgba(255,255,255,0.5)" stroke-width="1.5"/>
    <line x1="70" y1="75" x2="70" y2="112" stroke="rgba(255,255,255,0.5)" stroke-width="1.5"/>

    <!-- Outer connections (peer network) -->
    <line x1="50" y1="52" x2="90" y2="52" stroke="rgba(255,255,255,0.25)" stroke-width="1"/>
    <line x1="45" y1="95" x2="70" y2="112" stroke="rgba(255,255,255,0.25)" stroke-width="1"/>
    <line x1="95" y1="95" x2="70" y2="112" stroke="rgba(255,255,255,0.25)" stroke-width="1"/>
    <line x1="50" y1="52" x2="45" y2="95" stroke="rgba(255,255,255,0.25)" stroke-width="1"/>
    <line x1="90" y1="52" x2="95" y2="95" stroke="rgba(255,255,255,0.25)" stroke-width="1"/>

    <!-- Checkmark overlay on central node -->
    <path d="M65 75 L68.5 79 L76 70" stroke="white" stroke-width="2.5" fill="none" stroke-linecap="round" stroke-linejoin="round"/>
  </g>

  <!-- Text: SME Mart - stretched to match tagline width -->
  <text x="170" y="108" font-family="'Helvetica Neue', Arial, sans-serif" font-size="72" fill="#1B3A5C" textLength="380" lengthAdjust="spacing">
    <tspan font-weight="800">SME </tspan><tspan font-weight="300" fill="#2A5F8F">Mart</tspan>
  </text>

  <!-- Accent underline -->
  <rect x="170" y="120" width="380" height="4" rx="2" fill="url(#accentGrad)"/>

  <!-- Tagline -->
  <text x="170" y="148" font-family="'Helvetica Neue', Arial, sans-serif" font-weight="500" font-size="16" fill="#6B7C8E" letter-spacing="2.55">COMPLIANCE EXPERTS MARKETPLACE</text>

</svg>