<svg xmlns="http://www.w3.org/2000/svg" viewBox="0 0 53.58 53.58">
  <!-- ZeroBias app nav icon: platform nav/_template/color.svg with a WHITE border ring and the
       ZeroBias "0" mark (from images/zerobias/zerobias_icon_white_on_black.svg, black bg dropped)
       centered on the navy tile. -->
  <defs><style>
    .tile{fill:#233747;}
    .border{fill:#ffffff;}
  </style></defs>
  <rect class="tile" x="1.5" y="1.5" width="50.58" height="50.58" rx="7.24"/>
  <path class="border" d="M44.84,3a5.75,5.75,0,0,1,5.74,5.74v36.1a5.74,5.74,0,0,1-5.74,5.74H8.74A5.75,5.75,0,0,1,3,44.84V8.74A5.75,5.75,0,0,1,8.74,3h36.1m0-3H8.74A8.74,8.74,0,0,0,0,8.74v36.1a8.74,8.74,0,0,0,8.74,8.74h36.1a8.74,8.74,0,0,0,8.74-8.74V8.74A8.74,8.74,0,0,0,44.84,0Z"/>
  <g transform="translate(26.79 26.79) scale(0.52) translate(-60.11 -60.36)" fill="#ffffff">
    <path fill-rule="evenodd" clip-rule="evenodd" d="M60.1102 90.6887C42.6137 90.6887 33.0222 77.8052 33.0222 60.3555C33.0222 42.9057 42.6137 30.0222 60.1102 30.0222C77.6067 30.0222 87.1982 42.9057 87.1982 60.3555C87.1982 77.8052 77.6067 90.6887 60.1102 90.6887ZM60.1102 84.3285C73.6191 84.3285 79.8741 73.6466 79.8741 60.3555C79.8741 47.0643 73.6191 36.3824 60.1102 36.3824C46.6013 36.3824 40.3463 47.0643 40.3463 60.3555C40.3463 73.6466 46.6013 84.3285 60.1102 84.3285Z"/>
    <path fill-rule="evenodd" clip-rule="evenodd" d="M60.1102 92.7109C41.4751 92.7109 31 78.9001 31 60.3555C31 41.8108 41.4751 28 60.1102 28C78.7453 28 89.2204 41.8108 89.2204 60.3555C89.2204 78.9001 78.7453 92.7109 60.1102 92.7109ZM60.1102 82.3063C72.3571 82.3063 77.8519 72.6807 77.8519 60.3555C77.8519 48.0302 72.3571 38.4046 60.1102 38.4046C47.8633 38.4046 42.3685 48.0302 42.3685 60.3555C42.3685 72.6807 47.8633 82.3063 60.1102 82.3063ZM33.0222 60.3555C33.0222 77.8052 42.6137 90.6887 60.1102 90.6887C77.6067 90.6887 87.1982 77.8052 87.1982 60.3555C87.1982 42.9057 77.6067 30.0222 60.1102 30.0222C42.6137 30.0222 33.0222 42.9057 33.0222 60.3555ZM79.8741 60.3555C79.8741 73.6466 73.6191 84.3285 60.1102 84.3285C46.6013 84.3285 40.3463 73.6466 40.3463 60.3555C40.3463 47.0643 46.6013 36.3824 60.1102 36.3824C73.6191 36.3824 79.8741 47.0643 79.8741 60.3555Z"/>
    <path fill-rule="evenodd" clip-rule="evenodd" d="M39.3742 73.1552L72.2633 40.2662L80.7485 48.7515L47.8595 81.6405L39.3742 73.1552Z"/>
  </g>
</svg>
